PathFileType	4	(X/Y/Z)	39_1_3_p0_0-286_filt_butterworth.trc
DataRate	CameraRate	NumFrames	NumMarkers	Units	OrigDataRate	OrigDataStartFrame	OrigNumFrames
42.0	42.0	6	27	m	42.0	143	286
Frame#	Time	RHip			RKnee			RAnkle			RBigToe			RSmallToe			RHeel			LHip			LKnee			LAnkle			LBigToe			LSmallToe			LHeel			Neck			Head			Nose			RShoulder			RElbow			RWrist			RThumb			RIndex			RPinky			LShoulder			LElbow			LWrist			LThumb			LIndex			LPinky			
		X1	Y1	Z1	X2	Y2	Z2	X3	Y3	Z3	X4	Y4	Z4	X5	Y5	Z5	X6	Y6	Z6	X7	Y7	Z7	X8	Y8	Z8	X9	Y9	Z9	X10	Y10	Z10	X11	Y11	Z11	X12	Y12	Z12	X13	Y13	Z13	X14	Y14	Z14	X15	Y15	Z15	X16	Y16	Z16	X17	Y17	Z17	X18	Y18	Z18	X19	Y19	Z19	X20	Y20	Z20	X21	Y21	Z21	X22	Y22	Z22	X23	Y23	Z23	X24	Y24	Z24	X25	Y25	Z25	X26	Y26	Z26	X27	Y27	Z27	
143	3.4047619047619047	0.33525464332589877	0.6447940994231496	0.5416465791223712	0.2860411176531188	0.7690058450093427	0.9512236550948774	0.24823179085861385	0.7973299530802077	1.3138083712583508	0.2186626603680224	0.6825918848237087	1.3644698091024583	0.27723844603363046	0.6706278231933913	1.3584090357503584	0.22902959229736736	0.8515064721426787	1.365888611594652	0.10711421579349163	0.6149859152397925	0.5383819880097894	0.07468115101548947	0.7352603143733233	0.9287817999151943	0.03218171052786947	0.816095707419482	1.3404540629383763	0.0627406143579646	0.6045561306585165	1.3270024428005396	0.011075325167281089	0.6437238301841005	1.3293059475620543	0.042845615722457146	0.8387470672494942	1.3754217208868569	0.20650733665720017	0.5121231615009944	-0.0034266375308439237	0.2040393804794651	0.4541635573691116	-0.2537464915509307	0.2190875688373241	0.4252321887994311	-0.115131739346734	0.3616056043932361	0.5683078382686723	0.05936528499751898	0.43417083203118945	0.5658077121012773	0.3100359908970637	0.3268423492008202	0.45195047272607336	0.5088141808504744	0.20574930338346764	0.4800623527177561	0.5724917966244754	0.1971029680147547	0.4795837724890427	0.6021678751523868	0.23667593137054307	0.42491015813572164	0.5950976897066211	0.05295095984646879	0.538690582008617	0.07898765280409928	0.002170447483817899	0.5389496362778032	0.33163890517039285	0.16525354864125025	0.4435831459413853	0.5000338205351103	0.24807228399614	0.4181647102219398	0.5299713397137603	0.2496389178745883	0.41912252008743545	0.5785318911648214	0.23079926258511924	0.4589976132251745	0.5968754141285967
144	3.4285714285714284	0.33494141516451004	0.6450491198738777	0.5418050520801968	0.28605229925484515	0.7689078888019036	0.9509033019830484	0.24798866466400799	0.7968082684030802	1.3136598191680542	0.22103616109012691	0.6827035340435641	1.3647547577062666	0.28060737373747896	0.6718515157815546	1.3587318378227302	0.22535503067823406	0.8508968679172897	1.3603889165625556	0.10793611303132836	0.620573385514263	0.5395082375696661	0.0762124734598444	0.73601517524693	0.9315564863346676	0.03237245702038652	0.8174225545695031	1.3433808370064844	0.06032483261072118	0.6115810635933334	1.3325430729884091	0.005654362758610266	0.6569737995056684	1.3343702341437806	0.043020148064282414	0.8391796258621635	1.3777658872412655	0.20626890918653965	0.5120669383807469	-0.0018410982151171199	0.20392171721553026	0.4541121453959608	-0.25374419942840765	0.21919283784811552	0.4243597169772736	-0.11520997756949855	0.3615959721680157	0.5679797769082495	0.06051660869749395	0.4341580510957739	0.5659112941478538	0.31001155902686023	0.3289994556890153	0.45260033103135033	0.5073529212215404	0.2095906876356315	0.48363653225802583	0.573096633787847	0.19926386433707655	0.4802797149543332	0.6022982128324885	0.23660736736711377	0.42510545565573415	0.595134922663423	0.05286827125116812	0.5385653741893659	0.07911972177836546	0.0021704733842468054	0.5388986699352962	0.3315951713164251	0.16525857303091018	0.44360250557311276	0.5002058964308211	0.24805791765620688	0.41840034977245266	0.5301085853234839	0.250075912379393	0.4189971962491532	0.5767873460215436	0.23088999046665248	0.4589850272891059	0.5967022795544248
145	3.452380952380953	0.3346601543730153	0.6455143261748886	0.5419798189366858	0.2860211899123617	0.7692817048301756	0.9512810988725784	0.2475533848301864	0.796540391034445	1.3149365406694855	0.22164888120559081	0.6827418572586423	1.3648297468771435	0.28261162186666927	0.6722665758820954	1.3589037443118839	0.22400972279274445	0.8488602261472352	1.359743992433708	0.1086615611824596	0.6239830665704981	0.5402148280757735	0.0782398404193547	0.7370741829373108	0.9345181890673141	0.032506847419972396	0.8181391574702656	1.3450821380492757	0.05843978466080987	0.6162936206530059	1.3378971742166845	0.0033364188800037173	0.6619555582602903	1.3366784639104292	0.043056972873721344	0.8388276465068871	1.3787248715416416	0.20626078310430385	0.5127890833447858	-0.00085731853819232	0.20408434308269563	0.45413897773486533	-0.25373707620656777	0.22071963693005886	0.42031245653375393	-0.11539123432278361	0.36178894784054005	0.5685346152981087	0.06061998736981585	0.43415713567440417	0.5658271460992251	0.30998885584652686	0.33042139411399796	0.45265165146549485	0.5063928328364977	0.2111269308810979	0.4890927988041166	0.5728365335820376	0.20047158517816216	0.48072997420560615	0.6023712250138233	0.2365597558691676	0.4251693297893251	0.5952947972812965	0.053036076925551096	0.5386212856852786	0.07922051804235326	0.0021730203240726944	0.5389349163088709	0.3316003725623452	0.16526547454085588	0.4435472963362965	0.5002132414276363	0.24807764237379032	0.418359791185284	0.5303724225852173	0.25026026533706225	0.418948735633009	0.5757456124462035	0.23090252359111196	0.459201586282689	0.5967410633144301
146	3.4761904761904763	0.3344295104693567	0.6463562836248284	0.5421320459524284	0.2862294753648796	0.7699691113607561	0.9527388899090954	0.2473845456939347	0.7971538107214461	1.317382947457856	0.22059894302696978	0.6826820120987943	1.3647886040116834	0.28190766185220206	0.6727322097419842	1.3591979158375467	0.22496401681494416	0.8442004322418859	1.3648899163698356	0.10954108698605834	0.6251594177896066	0.540480079629694	0.07893088870684216	0.7378580102485117	0.9350801225980794	0.03255017309068224	0.8180888187474978	1.3451861430572647	0.05813786623930538	0.6168797953308434	1.337804101487034	0.006101909530123765	0.6555564038554544	1.3338660131061133	0.04307307752878867	0.8385588797286238	1.3786030193443444	0.2062563172679151	0.5129254245593784	-0.0008008168695307468	0.20412767971230503	0.45416980321918954	-0.25375720150274855	0.22277873160619946	0.4153195047918839	-0.11569767215100675	0.3618174648751083	0.5686933624392687	0.06047796463878703	0.43418510209174427	0.565661962761714	0.30994737642003456	0.3305539586618012	0.45250801733164736	0.5063350402934897	0.21121355859546567	0.49241384466388305	0.5709967727152861	0.2004602256660742	0.48076101832096585	0.6022984584116282	0.23656398407876772	0.42525117710266935	0.595222637575423	0.053048044672409825	0.5386152034085664	0.07923622395021367	0.002194127601920835	0.5389412085215196	0.3316239560481258	0.1652094805293449	0.443638817447335	0.5001967009831435	0.24800535248926056	0.41847889174388236	0.5304332533123843	0.2501922966886295	0.4189353766170301	0.5756134942579149	0.23094377637828778	0.4594157837070456	0.5968475727012914
147	3.5	0.3345624592330836	0.6461156699632571	0.5419159743844222	0.2868341269434647	0.7705403760829748	0.9530903766575073	0.24749844699124082	0.7978059856080764	1.3189749072968175	0.21970157057779177	0.682613265725291	1.3647679734239055	0.2809067068448269	0.6724273898346025	1.3590807379665184	0.2251233744478672	0.8407124318896091	1.3663944123251872	0.10961284259910449	0.6248394159481734	0.5404293437906497	0.07861725504522667	0.7385423812076122	0.9344838920502453	0.03254246098323589	0.8180336427231438	1.3452453176265133	0.05857011124787893	0.6160758278190401	1.3346249381464064	0.009905883270782482	0.6498873320479964	1.3311503891409286	0.043109222129856815	0.8386131810610065	1.3785400583466454	0.20625123385645422	0.5127442189124803	-0.0009577962169888375	0.20411318039317883	0.45419111109240834	-0.25377689188614705	0.2227581189463892	0.4153331235727843	-0.11563801373175045	0.36177147410618793	0.5686166757488003	0.060611401267509676	0.43423802937465533	0.5655570855380104	0.30978723947939635	0.33032830990691564	0.45250526682897835	0.5065438991498981	0.2116897085170848	0.49295368048528676	0.5684195095059749	0.2002320503951774	0.480683005423668	0.6022248843997194	0.23646163536690545	0.42514641834539624	0.5941731048968937	0.05300434363176519	0.5386051994348304	0.07921668986116628	0.0022114289004218288	0.5388870160600058	0.33161717426071535	0.16496317338783645	0.4441989535782995	0.5002924237972599	0.24792209719894082	0.41867731700261435	0.5300295829653053	0.25017434950233813	0.41884058374794997	0.575550007044056	0.23107992752772932	0.459429820554686	0.5968186495973689
148	3.523809523809524	0.3358973660464316	0.6419974242377648	0.5412629531857764	0.28734562493184357	0.770385463695016	0.9512156198325464	0.247588436806845	0.797908020357333	1.319090872578461	0.21960488303814454	0.6825967652774413	1.3647889300785963	0.282015582907439	0.6679435863416676	1.3569851178149068	0.22454114540715453	0.8426596009637335	1.3616579202917247	0.10884743060632307	0.621112694410363	0.5396592111191337	0.07866004875197886	0.7388718974442359	0.9341821117843092	0.03247688277420395	0.8180349829717817	1.3452835913720143	0.05863327994824777	0.6156784230311455	1.3331599774384406	0.012306569731410293	0.6498092376381588	1.3309489540638217	0.04311242531175985	0.8387753838549592	1.3787879559963252	0.20624132353878621	0.5125774627717731	-0.0009792864543539336	0.20410276633303298	0.45417731552469665	-0.2537818904451129	0.2206584499043086	0.42030277821900747	-0.11450700061734677	0.3617293809432523	0.5685410644594012	0.06057486425631818	0.43424388400525704	0.5655246558554038	0.30983422618056283	0.33030217602842815	0.4525463465462241	0.5065494453386633	0.21121696077084748	0.49298412905725714	0.5670608034721705	0.20022022594380323	0.480688277464925	0.6022250820272244	0.23616733771546247	0.42471168596497477	0.5924004069720059	0.05298441104943869	0.5385994334608475	0.07922102461389402	0.00221431490727894	0.5388391619214057	0.3316190930747486	0.16504463440638154	0.44394396946709547	0.5002475510191435	0.2478903373998149	0.4187888789783544	0.5291675117740215	0.2502211905079883	0.4187876373542928	0.5756095515281803	0.23118075160651919	0.4595072001544519	0.5967474473656679
